<svg id="Слой_1" data-name="Слой 1" xmlns="http://www.w3.org/2000/svg" viewBox="0 0 91.3 60.1"><defs><style>.cls-1{fill:#fff;}</style></defs><path class="cls-1" d="M183.56,116.63H104.63c-3.94,0-6.17,2.22-6.17,6.16v47.75c0,4,2.22,6.19,6.26,6.19h78.81c4,0,6.23-2.2,6.23-6.22V122.88C189.76,118.85,187.56,116.63,183.56,116.63Zm4.18,53.62c0,3.21-1.27,4.46-4.52,4.46H104.89c-3.13,0-4.41-1.29-4.41-4.46V123.11c0-3.17,1.27-4.46,4.4-4.46h78.45c3.13,0,4.41,1.29,4.41,4.46Z" transform="translate(-98.46 -116.63)"/><path class="cls-1" d="M123.94,126.47a20.21,20.21,0,1,0,20.22,20.17A20.19,20.19,0,0,0,123.94,126.47Zm0,39.36a19.15,19.15,0,1,1,19.12-19.21A19.23,19.23,0,0,1,124,165.83Z" transform="translate(-98.46 -116.63)"/><path class="cls-1" d="M181,124.84c-.39.19-.78.54-1.17.54-5.8,0-11.59,0-17.39,0H146.05a4.32,4.32,0,0,1-1.08,0,6.63,6.63,0,0,1-1.14-.55c.39-.18.78-.51,1.17-.51q17.44,0,34.89,0C180.27,124.32,180.65,124.66,181,124.84Z" transform="translate(-98.46 -116.63)"/><path class="cls-1" d="M181,168.07c-.19.17-.36.41-.58.47a3.34,3.34,0,0,1-.95,0H145.56a1.66,1.66,0,0,1-.59,0c-.39-.15-.76-.37-1.14-.56.39-.17.78-.51,1.17-.51,7.16,0,14.31,0,21.47,0h12.95a3.83,3.83,0,0,1,1.07.06C180.7,167.61,180.85,167.89,181,168.07Z" transform="translate(-98.46 -116.63)"/><path class="cls-1" d="M181,138.93a.89.89,0,0,1-.46.57,2.67,2.67,0,0,1-.94.07H154.2a1.22,1.22,0,0,1-.47,0c-.33-.18-.64-.4-.95-.6.31-.17.62-.47.94-.47,2.83,0,5.67,0,8.5,0h17.25a4.75,4.75,0,0,1,1.07.05C180.73,138.56,181,138.84,181,138.93Z" transform="translate(-98.46 -116.63)"/><path class="cls-1" d="M181,154a3,3,0,0,1-1.49.44c-4.23,0-8.46,0-12.69,0H154.2a3.81,3.81,0,0,1-1.07-.08c-.15,0-.31-.33-.33-.53a.56.56,0,0,1,.33-.41,5.45,5.45,0,0,1,1.07-.08c8.42,0,16.85,0,25.27,0C180,153.33,180.87,153,181,154Z" transform="translate(-98.46 -116.63)"/><path class="cls-1" d="M124,134.63a6.05,6.05,0,1,0,6,6.14A6,6,0,0,0,124,134.63Zm0,11a5,5,0,1,1,5-5A5.06,5.06,0,0,1,124,145.67Z" transform="translate(-98.46 -116.63)"/><path class="cls-1" d="M132.14,160.88c0,.27-.32.54-.5.81-.19-.29-.5-.57-.55-.89-.27-1.85-.39-3.73-.72-5.57a11.58,11.58,0,0,0-1.09-3,5.89,5.89,0,0,0-5.6-3.6,6,6,0,0,0-5.58,3.65,19.79,19.79,0,0,0-1.75,7.77c0,.59.4,1.47-.64,1.6a3.67,3.67,0,0,1-.41-1.63,19.83,19.83,0,0,1,1.77-8.13c1.37-2.7,3.43-4.37,6.73-4.33a6.68,6.68,0,0,1,6.23,3.75C131.73,154.25,132.05,157.55,132.14,160.88Z" transform="translate(-98.46 -116.63)"/></svg>