<svg id="Слой_1" data-name="Слой 1" xmlns="http://www.w3.org/2000/svg" viewBox="0 0 91.3 60.1"><defs><style>.cls-1{fill:#fff;}</style></defs><path class="cls-1" d="M150,180.05H110.48c-3.87,0-6.13-2.24-6.13-6.08V126c0-3.76,2.28-6,6.05-6h79.18c3.79,0,6.07,2.26,6.07,6v48.11c0,3.68-2.3,6-6,6Zm41.94-57.4,0-.35a21.13,21.13,0,0,0-2.61-.32q-39.24,0-78.47,0a4.87,4.87,0,0,0-1.08,0c-.57.14-1.13.35-1.88.6.53.46.82.73,1.13,1,12.52,10.08,25.07,20.12,37.54,30.27a5.16,5.16,0,0,0,6.8,0c12.5-10.17,25.08-20.24,37.64-30.34C191.25,123.22,191.56,122.93,191.89,122.65Zm-83.75,54.62v.42a18.12,18.12,0,0,0,2.52.33q39.35,0,78.68,0a4.85,4.85,0,0,0,1.08,0c.54-.14,1-.36,1.62-.56a2.52,2.52,0,0,0-.26-.39q-16.09-13-32.21-26c-.54-.43-.89-.27-1.34.1-1.61,1.32-3.22,2.62-4.85,3.91a5.22,5.22,0,0,1-7,0c-1.48-1.17-3-2.31-4.38-3.55-.72-.63-1.19-.58-1.92,0q-10.95,8.88-21.94,17.69Zm51.7-27.37,33.3,26.8a14.87,14.87,0,0,0,.47-2.5q0-24.22,0-48.44a12.57,12.57,0,0,0-.58-2.57ZM107,176.83l33.21-26.73-33.27-26.78a13,13,0,0,0-.5,2.44q0,24.21,0,48.44A13.28,13.28,0,0,0,107,176.83Z" transform="translate(-104.35 -119.95)"/></svg>