<svg width="120" height="120" viewBox="0 0 120 120" fill="none" xmlns="http://www.w3.org/2000/svg">
<path d="M108.75 26.25H90V19.6875C90 19.1719 89.5781 18.75 89.0625 18.75H82.5C81.9844 18.75 81.5625 19.1719 81.5625 19.6875V26.25H64.2188V19.6875C64.2188 19.1719 63.7969 18.75 63.2812 18.75H56.7188C56.2031 18.75 55.7812 19.1719 55.7812 19.6875V26.25H38.4375V19.6875C38.4375 19.1719 38.0156 18.75 37.5 18.75H30.9375C30.4219 18.75 30 19.1719 30 19.6875V26.25H11.25C9.17578 26.25 7.5 27.9258 7.5 30V97.5C7.5 99.5742 9.17578 101.25 11.25 101.25H108.75C110.824 101.25 112.5 99.5742 112.5 97.5V30C112.5 27.9258 110.824 26.25 108.75 26.25ZM104.062 92.8125H15.9375V34.6875H30V41.25C30 41.7656 30.4219 42.1875 30.9375 42.1875H37.5C38.0156 42.1875 38.4375 41.7656 38.4375 41.25V34.6875H55.7812V41.25C55.7812 41.7656 56.2031 42.1875 56.7188 42.1875H63.2812C63.7969 42.1875 64.2188 41.7656 64.2188 41.25V34.6875H81.5625V41.25C81.5625 41.7656 81.9844 42.1875 82.5 42.1875H89.0625C89.5781 42.1875 90 41.7656 90 41.25V34.6875H104.062V92.8125ZM48.75 58.125H27.1875C26.6719 58.125 26.25 58.5469 26.25 59.0625V64.6875C26.25 65.2031 26.6719 65.625 27.1875 65.625H48.75C49.2656 65.625 49.6875 65.2031 49.6875 64.6875V59.0625C49.6875 58.5469 49.2656 58.125 48.75 58.125ZM48.75 74.0625H27.1875C26.6719 74.0625 26.25 74.4844 26.25 75V80.625C26.25 81.1406 26.6719 81.5625 27.1875 81.5625H48.75C49.2656 81.5625 49.6875 81.1406 49.6875 80.625V75C49.6875 74.4844 49.2656 74.0625 48.75 74.0625ZM84.8672 53.2734L72.7266 70.1133L66.5391 61.5469C66.1875 61.0547 65.625 60.7734 65.0273 60.7734H58.5938C57.832 60.7734 57.3867 61.6406 57.832 62.2617L71.2031 80.8008C71.3757 81.0404 71.6028 81.2355 71.8657 81.37C72.1285 81.5046 72.4196 81.5748 72.7148 81.5748C73.0101 81.5748 73.3012 81.5046 73.564 81.37C73.8269 81.2355 74.0539 81.0404 74.2266 80.8008L93.5625 54C94.0078 53.3789 93.5625 52.5117 92.8008 52.5117H86.3672C85.7812 52.5 85.2188 52.793 84.8672 53.2734Z" fill="white"/>
</svg>
