<svg width="40" height="40" viewBox="0 0 40 40" fill="none" xmlns="http://www.w3.org/2000/svg">
<path d="M27.7864 15.0134L22.8955 10.2098C22.7591 10.0759 22.575 10 22.3818 10H12.7273C12.325 10 12 10.3192 12 10.7143V29.2857C12 29.6808 12.325 30 12.7273 30H27.2727C27.675 30 28 29.6808 28 29.2857V15.5201C28 15.3304 27.9227 15.1473 27.7864 15.0134ZM26.3227 15.8482H22.0455V11.6473L26.3227 15.8482ZM26.3636 28.3929H13.6364V11.6071H20.5V16.4286C20.5 16.6772 20.6006 16.9157 20.7796 17.0915C20.9586 17.2673 21.2014 17.3661 21.4545 17.3661H26.3636V28.3929ZM20.7273 19.1071C20.7273 19.0089 20.6455 18.9286 20.5455 18.9286H19.4545C19.3545 18.9286 19.2727 19.0089 19.2727 19.1071V21.5179H16.8182C16.7182 21.5179 16.6364 21.5982 16.6364 21.6964V22.7679C16.6364 22.8661 16.7182 22.9464 16.8182 22.9464H19.2727V25.3571C19.2727 25.4554 19.3545 25.5357 19.4545 25.5357H20.5455C20.6455 25.5357 20.7273 25.4554 20.7273 25.3571V22.9464H23.1818C23.2818 22.9464 23.3636 22.8661 23.3636 22.7679V21.6964C23.3636 21.5982 23.2818 21.5179 23.1818 21.5179H20.7273V19.1071Z" fill="white"/>
</svg>
