<svg width="120" height="120" viewBox="0 0 120 120" fill="none" xmlns="http://www.w3.org/2000/svg">
<path d="M25 97.5V25C25 22.3478 26.0536 19.8043 27.9289 17.9289C29.8043 16.0536 32.3478 15 35 15H92C92.7956 15 93.5587 15.3161 94.1213 15.8787C94.6839 16.4413 95 17.2044 95 18V105H32.5M45 35H75M32.5 75H95M32.5 90H95" stroke="white" stroke-width="7" stroke-linecap="round"/>
<path d="M32.5 75C27.5 75 25 78.36 25 82.5C25 86.64 27.5 90 32.5 90C27.5 90 25 93.36 25 97.5C25 101.64 27.5 105 32.5 105" stroke="white" stroke-width="7" stroke-linecap="round" stroke-linejoin="round"/>
</svg>
