<svg width="120" height="120" viewBox="0 0 120 120" fill="none" xmlns="http://www.w3.org/2000/svg">
<path d="M114 24L63.6 66.3C62.5614 67.0789 61.2982 67.5 60 67.5C58.7018 67.5 57.4386 67.0789 56.4 66.3L6 24M114 24C114 22.4087 113.368 20.8826 112.243 19.7574C111.117 18.6321 109.591 18 108 18H12C10.4087 18 8.88258 18.6321 7.75736 19.7574C6.63214 20.8826 6 22.4087 6 24M114 24V96C114 97.5913 113.368 99.1174 112.243 100.243C111.117 101.368 109.591 102 108 102H12C10.4087 102 8.88258 101.368 7.75736 100.243C6.63214 99.1174 6 97.5913 6 96V24" stroke="white" stroke-width="7" stroke-linecap="round" stroke-linejoin="round"/>
</svg>
