<svg width="120" height="120" viewBox="0 0 120 120" fill="none" xmlns="http://www.w3.org/2000/svg">
<path d="M21.936 84.69C23.1349 81.1245 25.4208 78.0242 28.4724 75.8247C31.524 73.6252 35.1881 72.437 38.9497 72.4271C42.7114 72.4171 46.3817 73.586 49.4449 75.7693C52.5081 77.9527 54.8103 81.0409 56.028 84.6M78 42H96M78 60H96M78 78H96M12 18H108C109.591 18 111.117 18.6321 112.243 19.7574C113.368 20.8826 114 22.4087 114 24V96C114 97.5913 113.368 99.1174 112.243 100.243C111.117 101.368 109.591 102 108 102H12C10.4087 102 8.88258 101.368 7.75736 100.243C6.63214 99.1174 6 97.5913 6 96V24C6 22.4087 6.63214 20.8826 7.75736 19.7574C8.88258 18.6321 10.4087 18 12 18ZM51 45C51 48.1826 49.7357 51.2348 47.4853 53.4853C45.2348 55.7357 42.1826 57 39 57C35.8174 57 32.7652 55.7357 30.5147 53.4853C28.2643 51.2348 27 48.1826 27 45C27 41.8174 28.2643 38.7652 30.5147 36.5147C32.7652 34.2643 35.8174 33 39 33C42.1826 33 45.2348 34.2643 47.4853 36.5147C49.7357 38.7652 51 41.8174 51 45Z" stroke="white" stroke-width="7" stroke-linecap="round" stroke-linejoin="round"/>
</svg>
