<svg width="120" height="120" viewBox="0 0 120 120" fill="none" xmlns="http://www.w3.org/2000/svg">
<path d="M82.5 93.75H37.5M82.5 93.75C86.4783 93.75 90.2936 95.3303 93.1066 98.1434C95.9197 100.956 97.5 104.772 97.5 108.75H22.5C22.5 104.772 24.0804 100.956 26.8934 98.1434C29.7065 95.3303 33.5218 93.75 37.5 93.75M82.5 93.75V76.875C82.5 73.77 79.985 71.25 76.875 71.25H72.52M37.5 93.75V76.875C37.5 73.77 40.02 71.25 43.125 71.25H47.485M72.52 71.25H47.485M72.52 71.25C69.7111 66.4 68.0327 60.9787 67.61 55.39M47.485 71.25C50.2923 66.3996 51.9689 60.9783 52.39 55.39M67.61 55.39C72.6514 54.2313 77.351 51.921 81.35 48.64M67.61 55.39C62.6019 56.5401 57.3982 56.5401 52.39 55.39M52.39 55.39C47.3504 54.2306 42.6477 51.9203 38.65 48.64M26.25 21.18C21.34 21.8966 16.48 22.7633 11.67 23.78C12.7826 30.325 16.0348 36.3161 20.9171 40.8148C25.7994 45.3134 32.036 48.0655 38.65 48.64M26.25 21.18V22.5C26.25 33.04 31.08 42.45 38.65 48.64M26.25 21.18V13.605C37.4306 12.027 48.7087 11.2401 60 11.25C71.455 11.25 82.725 12.05 93.75 13.6V21.18M93.75 21.18V22.5C93.75 33.04 88.92 42.45 81.35 48.64M93.75 21.18C98.6367 21.8899 103.499 22.757 108.33 23.78C107.218 30.3242 103.966 36.3147 99.085 40.8133C94.2037 45.3119 87.9632 48.0645 81.35 48.64" stroke="white" stroke-width="7" stroke-linecap="round" stroke-linejoin="round"/>
</svg>
