<svg width="40" height="40" viewBox="0 0 40 40" fill="none" xmlns="http://www.w3.org/2000/svg">
<path d="M29.796 19.6961L10.5335 10.0384C10.4552 9.99925 10.3654 9.99004 10.2802 10.0108C10.0844 10.0591 9.9624 10.2572 10.0108 10.4552L11.9957 18.5655C12.0257 18.6875 12.1155 18.7865 12.2352 18.8257L15.6364 19.9932L12.2375 21.1607C12.1178 21.2021 12.028 21.2988 12.0003 21.4209L10.0108 29.5427C9.99004 29.6279 9.99925 29.7177 10.0384 29.7937C10.1282 29.9756 10.3493 30.0493 10.5335 29.9595L29.796 20.357C29.8674 20.3225 29.9249 20.2626 29.9618 20.1935C30.0516 20.0093 29.9779 19.7882 29.796 19.6961ZM12.2813 27.2353L13.4396 22.5009L20.2373 20.1682C20.2902 20.1498 20.334 20.1083 20.3524 20.053C20.3846 19.9563 20.334 19.8527 20.2373 19.8182L13.4396 17.4878L12.2859 12.7718L26.7471 20.0231L12.2813 27.2353Z" fill="white"/>
</svg>
